M48
; DRILL file {KiCad 5.1.10-88a1d61d58~90~ubuntu20.04.1} date Wed Nov  3 15:52:02 2021
; FORMAT={-:-/ absolute / inch / decimal}
; #@! TF.CreationDate,2021-11-03T15:52:02-04:00
; #@! TF.GenerationSoftware,Kicad,Pcbnew,5.1.10-88a1d61d58~90~ubuntu20.04.1
; #@! TF.FileFunction,Plated,1,4,PTH
FMAT,2
INCH
T1C0.0118
T2C0.0315
T3C0.0394
T4C0.0512
T5C0.0591
T6C0.0945
T7C0.1063
%
G90
G05
T1
X2.187Y-3.9862
X2.2224Y-5.2717
X2.3996Y-4.313
X2.4114Y-6.935
X2.4213Y-4.3661
X2.4291Y-2.0098
X2.4744Y-6.935
X2.5098Y-3.5551
X2.5236Y-3.9114
X2.5236Y-4.0571
X2.5413Y-6.937
X2.5827Y-2.3701
X2.5827Y-2.4035
X2.5945Y-6.937
X2.6398Y-6.9154
X2.6437Y-2.2343
X2.6437Y-2.2638
X2.6496Y-2.563
X2.6496Y-2.5925
X2.6732Y-2.2343
X2.6732Y-2.2638
X2.6732Y-6.8839
X2.6791Y-2.563
X2.6791Y-2.5925
X2.7106Y-6.8465
X2.748Y-6.8091
X2.7598Y-1.8642
X2.7598Y-1.9134
X2.7598Y-1.9626
X2.7598Y-2.0118
X2.7598Y-2.061
X2.7756Y-6.6398
X2.7854Y-6.7717
X2.8091Y-1.8642
X2.8091Y-1.9134
X2.8091Y-1.9626
X2.8091Y-2.0118
X2.8091Y-2.061
X2.8189Y-3.5571
X2.8209Y-6.7362
X2.8346Y-3.0217
X2.8346Y-3.0512
X2.8445Y-3.8051
X2.8504Y-3.1102
X2.8504Y-3.1398
X2.8524Y-5.7362
X2.8524Y-5.815
X2.8524Y-5.8937
X2.8524Y-5.9724
X2.8524Y-6.0512
X2.8524Y-6.1299
X2.8524Y-6.2087
X2.8524Y-6.2874
X2.8524Y-6.3661
X2.8524Y-6.4449
X2.8524Y-6.5236
X2.8524Y-6.6024
X2.8524Y-6.6811
X2.8583Y-1.8642
X2.8583Y-1.9134
X2.8583Y-1.9626
X2.8583Y-2.0118
X2.8583Y-2.061
X2.8583Y-4.2539
X2.8583Y-6.9705
X2.8642Y-3.0217
X2.8642Y-3.0512
X2.8799Y-3.1102
X2.8799Y-3.1398
X2.8878Y-6.9705
X2.8898Y-3.9744
X2.9075Y-1.8642
X2.9075Y-1.9134
X2.9075Y-1.9626
X2.9075Y-2.0118
X2.9075Y-2.061
X2.9094Y-5.8484
X2.9094Y-5.878
X2.9094Y-5.9075
X2.9341Y-3.938
X2.935Y-4.0807
X2.939Y-5.8484
X2.939Y-5.878
X2.939Y-5.9075
X2.9449Y-5.6575
X2.9508Y-4.2185
X2.9567Y-1.8642
X2.9567Y-1.9134
X2.9567Y-1.9626
X2.9567Y-2.0118
X2.9567Y-2.061
X2.9685Y-5.6181
X2.9685Y-5.8484
X2.9685Y-5.878
X2.9685Y-5.9075
X2.9724Y-3.9154
X2.9852Y-3.7648
X2.9862Y-3.6358
X2.9862Y-6.7205
X3.0177Y-5.5866
X3.0236Y-5.6575
X3.0374Y-3.9114
X3.063Y-5.7539
X3.063Y-5.8898
X3.0689Y-5.5551
X3.0807Y-6.6831
X3.1024Y-5.6575
X3.1181Y-4.7421
X3.1398Y-3.5965
X3.1654Y-3.7677
X3.1654Y-6.2776
X3.1654Y-6.3386
X3.1811Y-5.6575
X3.189Y-1.878
X3.189Y-1.9075
X3.189Y-1.937
X3.2181Y-5.5232
X3.2185Y-1.878
X3.2185Y-1.9075
X3.2185Y-1.937
X3.2303Y-1.624
X3.248Y-1.878
X3.248Y-1.9075
X3.248Y-1.937
X3.2598Y-5.6575
X3.2697Y-5.4921
X3.3181Y-5.4618
X3.3189Y-3.8189
X3.3346Y-1.624
X3.3386Y-5.6575
X3.3386Y-6.9449
X3.3681Y-3.9252
X3.3681Y-5.4311
X3.4173Y-3.9783
X3.4173Y-5.6575
X3.4181Y-5.3988
X3.4272Y-5.8327
X3.437Y-1.7972
X3.437Y-1.8268
X3.437Y-1.8563
X3.437Y-1.8858
X3.4508Y-6.689
X3.4508Y-6.9823
X3.4685Y-4.0098
X3.4724Y-1.7972
X3.4724Y-1.8268
X3.4724Y-1.8563
X3.4724Y-1.8858
X3.4961Y-5.6575
X3.5138Y-1.7047
X3.5181Y-4.0409
X3.5256Y-6.9685
X3.5315Y-5.9882
X3.5366Y-6.3319
X3.5366Y-6.4205
X3.5374Y-6.2815
X3.565Y-1.8268
X3.565Y-1.8563
X3.565Y-1.8858
X3.5689Y-4.0807
X3.5748Y-5.6575
X3.5846Y-5.8484
X3.5846Y-6.9508
X3.6043Y-1.7047
X3.6122Y-6.9508
X3.6181Y-4.1161
X3.6398Y-1.7047
X3.6535Y-5.6575
X3.6594Y-4.5768
X3.6673Y-4.1535
X3.6673Y-4.7638
X3.6673Y-6.0866
X3.6811Y-5.9862
X3.6831Y-5.8563
X3.7146Y-6.7028
X3.7323Y-5.6575
X3.7697Y-6.5551
X3.7717Y-1.7165
X3.7717Y-2.5787
X3.7992Y-6.5276
X3.8091Y-6.6673
X3.811Y-5.6575
X3.8169Y-4.5374
X3.8268Y-6.5
X3.8287Y-6.5531
X3.8583Y-2.25
X3.8602Y-6.9843
X3.8661Y-6.5669
X3.8898Y-5.6575
X3.9035Y-6.5669
X3.9094Y-6.3543
X3.9094Y-6.3898
X3.9094Y-6.4252
X3.9114Y-2.0669
X3.9173Y-4.5374
X3.9311Y-6.9961
X3.9409Y-6.5669
X3.9449Y-6.3543
X3.9449Y-6.3898
X3.9449Y-6.4252
X3.9685Y-5.6575
X3.9705Y-5.752
X3.9705Y-5.8858
X3.9783Y-6.0039
X3.9803Y-6.3543
X3.9803Y-6.3898
X3.9803Y-6.4252
X3.9882Y-6.5709
X4.0177Y-3.5079
X4.0394Y-6.5728
X4.0413Y-5.6575
X4.0413Y-5.7244
X4.0413Y-5.7874
X4.0413Y-5.8465
X4.0413Y-5.9055
X4.0413Y-5.9646
X4.0413Y-6.0236
X4.0413Y-6.0827
X4.0413Y-6.1417
X4.0433Y-7.0039
X4.0492Y-2.0669
X4.0709Y-6.1831
X4.0709Y-6.25
X4.1063Y-6.3996
X4.1063Y-6.439
X4.1181Y-5.3602
X4.1575Y-6.3406
X4.1693Y-5.3307
X4.187Y-1.7165
X4.187Y-2.0669
X4.2185Y-5.2953
X4.2185Y-5.7618
X4.25Y-6.0236
X4.25Y-6.0728
X4.2657Y-6.122
X4.2657Y-6.1713
X4.2657Y-6.2205
X4.2657Y-6.2697
X4.2657Y-6.3189
X4.2657Y-6.3681
X4.2697Y-5.2598
X4.2815Y-6.4055
X4.2972Y-5.3484
X4.2992Y-6.4902
X4.3169Y-5.2264
X4.3602Y-5.3524
X4.3681Y-5.1949
X4.378Y-6.4409
X4.4173Y-5.1634
X4.4291Y-5.3543
X4.4764Y-6.1201
X4.4882Y-5.3543
X4.5709Y-6.0846
X4.626Y-6.9173
X4.6713Y-6.9626
X4.752Y-6.3366
X4.7638Y-6.4134
X4.7854Y-2.3661
X4.7874Y-2.1496
X4.8051Y-6.9882
X4.8209Y-3.0295
X4.8209Y-3.2402
X4.8799Y-2.3307
X4.8819Y-2.1142
X4.8996Y-6.9508
X4.9055Y-6.6594
X4.9114Y-1.9724
X4.9114Y-2.1909
X4.9154Y-2.9941
X4.9154Y-3.2067
X4.9429Y-2.8543
X4.9429Y-3.0728
X4.998Y-6.9055
X5.0Y-6.624
X5.0276Y-6.9055
X5.0433Y-2.1083
X5.0453Y-3.0118
X5.2264Y-6.4921
X5.2894Y-6.9114
X5.2933Y-2.3189
X5.2953Y-1.8976
X5.2972Y-2.8012
X5.2972Y-3.2224
X5.3839Y-6.8445
X5.3858Y-6.4921
X5.3976Y-5.7185
X5.4488Y-3.7047
X5.4488Y-4.2953
X5.4567Y-5.4764
X5.4606Y-4.8858
X5.7776Y-3.9252
X5.7795Y-4.5157
X5.7795Y-5.6949
X5.7815Y-5.1142
X5.8937Y-5.4331
X5.8957Y-4.8425
X5.8976Y-3.6614
X5.8976Y-4.252
T3
X2.5181Y-2.9488
X2.5201Y-2.8287
X2.6181Y-2.9488
X2.6181Y-3.2268
X2.6181Y-3.3268
X2.6181Y-4.9268
X2.6181Y-5.0268
X2.6201Y-2.8287
X2.7181Y-3.2268
X2.7181Y-3.3268
X2.7181Y-4.9268
X2.7181Y-5.0268
X2.8181Y-3.2268
X2.8181Y-3.3268
X2.8181Y-4.9268
X2.8181Y-5.0268
X2.9181Y-3.2268
X2.9181Y-3.3268
X2.9181Y-4.9268
X2.9181Y-5.0268
X3.0181Y-3.2268
X3.0181Y-3.3268
X3.0181Y-4.9268
X3.0181Y-5.0268
X3.1181Y-3.2268
X3.1181Y-3.3268
X3.1181Y-4.9268
X3.1181Y-5.0268
X3.2181Y-3.2268
X3.2181Y-3.3268
X3.2181Y-4.9268
X3.2181Y-5.0268
X3.3181Y-3.2268
X3.3181Y-3.3268
X3.3181Y-4.9268
X3.3181Y-5.0268
X3.4181Y-3.2268
X3.4181Y-3.3268
X3.4181Y-4.9268
X3.4181Y-5.0268
X3.5181Y-3.2268
X3.5181Y-3.3268
X3.5181Y-4.9268
X3.5181Y-5.0268
X3.6181Y-3.2268
X3.6181Y-3.3268
X3.6181Y-4.9268
X3.6181Y-5.0268
X3.7181Y-3.2268
X3.7181Y-3.3268
X3.7181Y-4.9268
X3.7181Y-5.0268
X3.8181Y-3.2268
X3.8181Y-3.3268
X3.8181Y-4.9268
X3.8181Y-5.0268
X3.9181Y-3.2268
X3.9181Y-3.3268
X3.9181Y-4.9268
X3.9181Y-5.0268
X4.0181Y-3.2268
X4.0181Y-3.3268
X4.0181Y-4.9268
X4.0181Y-5.0268
X4.1181Y-3.2268
X4.1181Y-3.3268
X4.1181Y-4.9268
X4.1181Y-5.0268
X4.2181Y-3.2268
X4.2181Y-3.3268
X4.2181Y-4.9268
X4.2181Y-5.0268
X4.3181Y-3.2268
X4.3181Y-3.3268
X4.3181Y-4.9268
X4.3181Y-5.0268
X4.4181Y-3.2268
X4.4181Y-3.3268
X4.4181Y-4.9268
X4.4181Y-5.0268
X4.5181Y-3.2268
X4.5181Y-3.3268
X4.5181Y-4.9268
X4.5181Y-5.0268
X5.4134Y-2.0098
X5.4134Y-2.1083
X5.4134Y-2.2067
X5.4134Y-2.9134
X5.4134Y-3.0118
X5.4134Y-3.1102
X5.9843Y-2.0098
X5.9843Y-2.2067
X5.9843Y-2.9134
X5.9843Y-3.1102
T4
X5.7087Y-6.2992
T6
X5.5728Y-6.1634
X5.5728Y-6.435
X5.8445Y-6.1634
X5.8445Y-6.435
T7
X2.1063Y-1.7126
X2.1063Y-6.9488
X6.1614Y-1.7126
X6.1614Y-6.9488
T2
G00X2.0945Y-2.2283
M15
G01X2.0945Y-2.1417
M16
G05
G00X2.0945Y-2.8189
M15
G01X2.0945Y-2.7323
M16
G05
G00X2.1614Y-1.9961
M15
G01X2.248Y-1.9961
M16
G05
G00X2.1614Y-2.5866
M15
G01X2.248Y-2.5866
M16
G05
G00X2.3228Y-2.2362
M15
G01X2.3228Y-2.1339
M16
G05
G00X2.3228Y-2.8268
M15
G01X2.3228Y-2.7244
M16
G05
T5
G00X5.6831Y-1.8878
M15
G01X5.7343Y-1.8878
M16
G05
G00X5.6831Y-2.3287
M15
G01X5.7343Y-2.3287
M16
G05
G00X5.6831Y-2.7913
M15
G01X5.7343Y-2.7913
M16
G05
G00X5.6831Y-3.2323
M15
G01X5.7343Y-3.2323
M16
G05
T0
M30
