%TF.GenerationSoftware,KiCad,Pcbnew,5.1.10-88a1d61d58~90~ubuntu20.04.1*%
%TF.CreationDate,2021-11-03T15:51:46-04:00*%
%TF.ProjectId,de0_nano_breakout,6465305f-6e61-46e6-9f5f-627265616b6f,rev?*%
%TF.SameCoordinates,Original*%
%TF.FileFunction,Legend,Bot*%
%TF.FilePolarity,Positive*%
%FSLAX46Y46*%
G04 Gerber Fmt 4.6, Leading zero omitted, Abs format (unit mm)*
G04 Created by KiCad (PCBNEW 5.1.10-88a1d61d58~90~ubuntu20.04.1) date 2021-11-03 15:51:46*
%MOMM*%
%LPD*%
G01*
G04 APERTURE LIST*
%ADD10C,0.200000*%
%ADD11C,0.120000*%
%ADD12C,0.175000*%
%ADD13C,0.250000*%
G04 APERTURE END LIST*
D10*
%TO.C,U4*%
X60150000Y-97200000D02*
X50244000Y-97200000D01*
X60150000Y-89326000D02*
X60150000Y-97200000D01*
X50244000Y-89326000D02*
X60150000Y-89326000D01*
X125130000Y-80309000D02*
X50200000Y-80309000D01*
X125130000Y-129331000D02*
X125130000Y-80309000D01*
X50200000Y-129331000D02*
X125130000Y-129331000D01*
X50200000Y-80309000D02*
X50200000Y-129331000D01*
D11*
X116090000Y-129010000D02*
X65170000Y-129010000D01*
X65170000Y-129010000D02*
X65170000Y-123810000D01*
X116090000Y-125140000D02*
X116090000Y-123810000D01*
X113490000Y-126410000D02*
X113490000Y-123810000D01*
X116090000Y-123810000D02*
X114760000Y-123810000D01*
X116090000Y-126410000D02*
X113490000Y-126410000D01*
X113490000Y-123810000D02*
X65170000Y-123810000D01*
X116090000Y-129010000D02*
X116090000Y-126410000D01*
X67770000Y-85830000D02*
X116090000Y-85830000D01*
X67770000Y-83230000D02*
X67770000Y-85830000D01*
X65170000Y-80630000D02*
X116090000Y-80630000D01*
X65170000Y-83230000D02*
X67770000Y-83230000D01*
X65170000Y-85830000D02*
X66500000Y-85830000D01*
X116090000Y-80630000D02*
X116090000Y-85830000D01*
X65170000Y-84500000D02*
X65170000Y-85830000D01*
X65170000Y-80630000D02*
X65170000Y-83230000D01*
%TO.C,J3*%
X60000000Y-75100000D02*
X60000000Y-73000000D01*
X60300000Y-75400000D02*
X58700000Y-75400000D01*
X60300000Y-73700000D02*
X60300000Y-75400000D01*
X60000000Y-65900000D02*
X58200000Y-65900000D01*
X60000000Y-68000000D02*
X60000000Y-65900000D01*
X45300000Y-75100000D02*
X60000000Y-75100000D01*
X45300000Y-65900000D02*
X45300000Y-75100000D01*
X53800000Y-65900000D02*
X45300000Y-65900000D01*
%TO.C,J2*%
X60000000Y-60100000D02*
X60000000Y-58000000D01*
X60300000Y-60400000D02*
X58700000Y-60400000D01*
X60300000Y-58700000D02*
X60300000Y-60400000D01*
X60000000Y-50900000D02*
X58200000Y-50900000D01*
X60000000Y-53000000D02*
X60000000Y-50900000D01*
X45300000Y-60100000D02*
X60000000Y-60100000D01*
X45300000Y-50900000D02*
X45300000Y-60100000D01*
X53800000Y-50900000D02*
X45300000Y-50900000D01*
%TO.C,U4*%
D12*
X52220476Y-78918095D02*
X52220476Y-79630476D01*
X52178571Y-79714285D01*
X52136666Y-79756190D01*
X52052857Y-79798095D01*
X51885238Y-79798095D01*
X51801428Y-79756190D01*
X51759523Y-79714285D01*
X51717619Y-79630476D01*
X51717619Y-78918095D01*
X50921428Y-79211428D02*
X50921428Y-79798095D01*
X51130952Y-78876190D02*
X51340476Y-79504761D01*
X50795714Y-79504761D01*
D13*
X54355761Y-90612190D02*
X55974809Y-90612190D01*
X56165285Y-90707428D01*
X56260523Y-90802666D01*
X56355761Y-90993142D01*
X56355761Y-91374095D01*
X56260523Y-91564571D01*
X56165285Y-91659809D01*
X55974809Y-91755047D01*
X54355761Y-91755047D01*
X56260523Y-92612190D02*
X56355761Y-92897904D01*
X56355761Y-93374095D01*
X56260523Y-93564571D01*
X56165285Y-93659809D01*
X55974809Y-93755047D01*
X55784333Y-93755047D01*
X55593857Y-93659809D01*
X55498619Y-93564571D01*
X55403380Y-93374095D01*
X55308142Y-92993142D01*
X55212904Y-92802666D01*
X55117666Y-92707428D01*
X54927190Y-92612190D01*
X54736714Y-92612190D01*
X54546238Y-92707428D01*
X54451000Y-92802666D01*
X54355761Y-92993142D01*
X54355761Y-93469333D01*
X54451000Y-93755047D01*
X55308142Y-95278857D02*
X55403380Y-95564571D01*
X55498619Y-95659809D01*
X55689095Y-95755047D01*
X55974809Y-95755047D01*
X56165285Y-95659809D01*
X56260523Y-95564571D01*
X56355761Y-95374095D01*
X56355761Y-94612190D01*
X54355761Y-94612190D01*
X54355761Y-95278857D01*
X54451000Y-95469333D01*
X54546238Y-95564571D01*
X54736714Y-95659809D01*
X54927190Y-95659809D01*
X55117666Y-95564571D01*
X55212904Y-95469333D01*
X55308142Y-95278857D01*
X55308142Y-94612190D01*
%TO.C,J3*%
D12*
X61981904Y-70793333D02*
X61353333Y-70793333D01*
X61227619Y-70835238D01*
X61143809Y-70919047D01*
X61101904Y-71044761D01*
X61101904Y-71128571D01*
X61981904Y-70458095D02*
X61981904Y-69913333D01*
X61646666Y-70206666D01*
X61646666Y-70080952D01*
X61604761Y-69997142D01*
X61562857Y-69955238D01*
X61479047Y-69913333D01*
X61269523Y-69913333D01*
X61185714Y-69955238D01*
X61143809Y-69997142D01*
X61101904Y-70080952D01*
X61101904Y-70332380D01*
X61143809Y-70416190D01*
X61185714Y-70458095D01*
%TO.C,J2*%
X61981904Y-55793333D02*
X61353333Y-55793333D01*
X61227619Y-55835238D01*
X61143809Y-55919047D01*
X61101904Y-56044761D01*
X61101904Y-56128571D01*
X61898095Y-55416190D02*
X61940000Y-55374285D01*
X61981904Y-55290476D01*
X61981904Y-55080952D01*
X61940000Y-54997142D01*
X61898095Y-54955238D01*
X61814285Y-54913333D01*
X61730476Y-54913333D01*
X61604761Y-54955238D01*
X61101904Y-55458095D01*
X61101904Y-54913333D01*
%TD*%
M02*
